<?xml version="1.0" encoding="utf-8"?>
<svg xmlns="http://www.w3.org/2000/svg" xmlns:svg="http://www.w3.org/2000/svg" version="1.1" viewBox="0 0 1400 340">
	<title>The titlepage for the Standard Ebooks edition of Wired Love: A Romance of Dots and Dashes, by Ella Cheever Thayer</title>
	<g aria-label="WIRED LOVE">
		<path d="m 437.70029,130 h 19.46199 l 21.9883,-77.192984 h -19.46199 l -13.19298,52.959064 h -0.46784 L 431.99269,52.807016 h -13.28655 l -14.03509,52.959064 h -0.46784 L 391.01023,52.807016 H 371.45467 L 393.44298,130 h 19.55555 l 12.35088,-43.321638 z"/>
		<path d="M 505.96052,52.807016 H 488.36988 V 130 h 17.59064 z"/>
		<path d="M 522.24414,52.807016 V 130 h 17.59065 V 99.497075 L 563.41374,130 h 22.36257 l -26.5731,-31.906433 c 9.45029,-2.994152 15.81286,-10.760234 15.81286,-22.362574 0,-15.157895 -10.8538,-22.923977 -25.16959,-22.923977 z m 17.59065,34.245615 V 66.842104 h 2.05848 c 6.64327,0 14.59649,0.467836 14.59649,10.105263 0,9.637428 -7.95322,10.105264 -14.59649,10.105264 z"/>
		<path d="M 638.47661,52.807016 H 594.31287 V 130 h 44.16374 v -15.4386 h -26.5731 V 99.029239 h 25.4503 V 83.590642 h -25.4503 V 68.245613 h 26.5731 z"/>
		<path d="M 653.58919,52.807016 V 130 h 22.36257 c 21.23977,0 38.92398,-16.09357 38.92398,-38.643276 0,-22.45614 -17.77778,-38.549708 -38.92398,-38.549708 z M 671.17983,114.2807 V 68.526315 h 2.71345 c 13.09942,0 21.98831,10.011696 21.98831,22.923977 -0.0936,12.912278 -8.98246,22.830408 -21.98831,22.830408 z"/>
		<path d="M 775.84356,52.807016 H 758.25292 V 130 h 44.16374 v -15.4386 h -26.5731 z"/>
		<path d="m 812.60526,91.356724 c 0,22.549706 16.09357,40.046786 38.92398,40.046786 22.17544,0 38.83041,-17.49708 38.83041,-40.046786 0,-22.549708 -17.40351,-39.953217 -38.83041,-39.953217 -21.23977,0 -38.92398,17.403509 -38.92398,39.953217 z m 18.99415,0 c 0,-11.508772 6.36258,-23.017544 19.92983,-23.017544 13.66082,0 19.83626,11.508772 19.83626,23.017544 0,11.508776 -5.80117,23.017546 -19.83626,23.017546 -14.40936,0 -19.92983,-11.50877 -19.92983,-23.017546 z"/>
		<path d="m 924.33773,130 h 13.84795 L 970.55995,52.807016 H 950.72369 L 931.2617,103.52047 911.79972,52.807016 h -19.83626 z"/>
		<path d="M 1022.6433,52.807016 H 978.47954 V 130 h 44.16376 V 114.5614 H 996.07018 V 99.029239 h 25.45032 V 83.590642 H 996.07018 V 68.245613 h 26.57312 z"/>
	</g>
	<g aria-label="ELLA CHEEVER THAYER">
		<path d="m 277.79112,232.10526 h -33.1228 V 290 h 33.1228 V 278.42105 H 257.8613 v -11.64912 h 19.08772 V 255.19298 H 257.8613 v -11.50877 h 19.92982 z"/>
		<path d="M 303.56853,232.10526 H 290.37555 V 290 h 33.12281 v -11.57895 h -19.92983 z"/>
		<path d="M 348.17928,232.10526 H 334.98629 V 290 h 33.12281 v -11.57895 h -19.92982 z"/>
		<path d="M 410.09705,232.10526 H 397.88652 L 374.5181,290 h 14.17544 l 4.2807,-11.57895 h 22.03509 L 419.29003,290 h 14.17544 z m 0.42105,34.73685 H 397.46547 L 403.92161,250 h 0.14035 z"/>
		<path d="m 493.45778,278.07018 c -13.26315,0 -19.08771,-9.26316 -19.08771,-17.05264 0,-7.71929 5.82456,-16.98245 19.08771,-16.98245 6.73685,0 11.36843,3.57895 11.36843,3.57895 l 5.61403,-11.22807 c 0,0 -6.45614,-5.33334 -19.01754,-5.33334 -16.42106,0 -31.36842,13.47369 -31.36842,30.10527 0,16.5614 15.01754,29.89473 31.36842,29.89473 12.5614,0 19.01754,-5.33333 19.01754,-5.33333 l -5.61403,-11.22807 c 0,0 -4.63158,3.57895 -11.36843,3.57895 z"/>
		<path d="m 533.74945,266.77193 h 18.66667 V 290 h 13.19298 v -57.89474 h -13.19298 v 23.08772 H 533.74945 V 232.10526 H 520.55647 V 290 h 13.19298 z"/>
		<path d="m 612.13322,232.10526 h -33.1228 V 290 h 33.1228 V 278.42105 H 592.2034 v -11.64912 h 19.08772 V 255.19298 H 592.2034 v -11.50877 h 19.92982 z"/>
		<path d="M 657.84047,232.10526 H 624.71766 V 290 h 33.12281 v -11.57895 h -19.92983 v -11.64912 h 19.08772 v -11.57895 h -19.08772 v -11.50877 h 19.92983 z"/>
		<path d="m 688.53017,290 h 10.38596 l 24.28071,-57.89474 h -14.8772 l -14.59649,38.03509 -14.59649,-38.03509 h -14.87719 z"/>
		<path d="m 763.50932,232.10526 h -33.1228 V 290 h 33.1228 V 278.42105 H 743.5795 v -11.64912 h 19.08772 V 255.19298 H 743.5795 v -11.50877 h 19.92982 z"/>
		<path d="M 776.09373,232.10526 V 290 h 13.19298 V 267.12281 L 806.97092,290 h 16.77193 l -19.92982,-23.92982 c 7.08772,-2.24562 11.85965,-8.07018 11.85965,-16.77193 0,-11.36842 -8.14035,-17.19299 -18.8772,-17.19299 z m 13.19298,25.68421 v -15.15789 h 1.54386 c 4.98246,0 10.94737,0.35088 10.94737,7.57895 0,7.22807 -5.96491,7.57894 -10.94737,7.57894 z"/>
		<path d="m 848.50821,243.68421 h 13.75438 V 290 h 13.19298 v -46.31579 h 13.75439 v -11.57895 h -40.70175 z"/>
		<path d="m 912.15408,266.77193 h 18.66667 V 290 h 13.19298 v -57.89474 h -13.19298 v 23.08772 H 912.15408 V 232.10526 H 898.9611 V 290 h 13.19298 z"/>
		<path d="M 986.81853,232.10526 H 974.608 L 951.23958,290 h 14.17544 l 4.2807,-11.57895 h 22.03509 L 996.01151,290 h 14.17539 z m 0.42105,34.73685 H 974.18695 L 980.64309,250 h 0.14035 z"/>
		<path d="m 1004.756,232.10526 21.3334,31.92983 V 290 h 13.1929 v -25.96491 l 21.3334,-31.92983 h -15.8597 l -12.0701,18.52632 -12.0702,-18.52632 z"/>
		<path d="m 1100.8667,232.10526 h -33.1228 V 290 h 33.1228 v -11.57895 h -19.9298 v -11.64912 h 19.0877 v -11.57895 h -19.0877 v -11.50877 h 19.9298 z"/>
		<path d="M 1113.4512,232.10526 V 290 h 13.193 V 267.12281 L 1144.3284,290 h 16.7719 l -19.9298,-23.92982 c 7.0877,-2.24562 11.8597,-8.07018 11.8597,-16.77193 0,-11.36842 -8.1404,-17.19299 -18.8772,-17.19299 z m 13.193,25.68421 v -15.15789 h 1.5439 c 4.9824,0 10.9473,0.35088 10.9473,7.57895 0,7.22807 -5.9649,7.57894 -10.9473,7.57894 z"/>
	</g>
</svg>
